<svg viewBox="0 0 32 32" fill="none"
	xmlns="http://www.w3.org/2000/svg">
	<path d="M16 7.8018C18.6702 7.8018 18.9864 7.812 20.0409 7.86011C21.0159 7.90461 21.5454 8.06748 21.8977 8.20443C22.3645 8.38584 22.6976 8.60253 23.0476 8.95249C23.3975 9.3024 23.6142 9.63556 23.7956 10.1023C23.9326 10.4547 24.0955 10.9842 24.1399 11.9592C24.188 13.0137 24.1982 13.3299 24.1982 16C24.1982 18.6702 24.188 18.9864 24.1399 20.0409C24.0954 21.0159 23.9325 21.5454 23.7956 21.8977C23.6142 22.3645 23.3975 22.6976 23.0476 23.0476C22.6976 23.3975 22.3645 23.6142 21.8977 23.7956C21.5454 23.9326 21.0159 24.0955 20.0409 24.1399C18.9866 24.188 18.6703 24.1982 16 24.1982C13.3297 24.1982 13.0135 24.188 11.9592 24.1399C10.9842 24.0954 10.4547 23.9325 10.1023 23.7956C9.63556 23.6142 9.30244 23.3975 8.95252 23.0476C8.60261 22.6976 8.38588 22.3645 8.20447 21.8977C8.06752 21.5454 7.90461 21.0159 7.86015 20.0409C7.81204 18.9864 7.80184 18.6701 7.80184 16C7.80184 13.3299 7.81204 13.0136 7.86015 11.9592C7.90465 10.9842 8.06752 10.4547 8.20447 10.1023C8.38588 9.63552 8.60257 9.3024 8.95252 8.95249C9.30244 8.60257 9.6356 8.38584 10.1023 8.20443C10.4547 8.06748 10.9842 7.90457 11.9592 7.86011C13.0136 7.812 13.3299 7.8018 16 7.8018ZM16 6C13.2842 6 12.9436 6.01151 11.8771 6.06018C10.8126 6.10876 10.0857 6.27779 9.44967 6.52501C8.79208 6.78057 8.2344 7.1225 7.67847 7.67843C7.12254 8.23436 6.7806 8.79208 6.52505 9.44963C6.27783 10.0857 6.1088 10.8126 6.06022 11.877C6.01151 12.9436 6 13.2842 6 16C6 18.7159 6.01151 19.0564 6.06018 20.123C6.10876 21.1874 6.27779 21.9143 6.52501 22.5504C6.78057 23.208 7.1225 23.7657 7.67843 24.3216C8.23436 24.8775 8.79208 25.2195 9.44963 25.475C10.0857 25.7223 10.8126 25.8913 11.877 25.9399C12.9436 25.9885 13.2842 26 16 26C18.7158 26 19.0564 25.9885 20.123 25.9399C21.1874 25.8913 21.9143 25.7223 22.5504 25.475C23.208 25.2195 23.7656 24.8775 24.3216 24.3216C24.8775 23.7657 25.2194 23.208 25.475 22.5504C25.7222 21.9143 25.8912 21.1874 25.9398 20.123C25.9885 19.0564 26 18.7159 26 16C26 13.2842 25.9885 12.9436 25.9398 11.8771C25.8912 10.8126 25.7222 10.0857 25.475 9.44967C25.2194 8.79208 24.8775 8.2344 24.3216 7.67847C23.7656 7.12254 23.2079 6.78061 22.5504 6.52505C21.9143 6.27783 21.1874 6.1088 20.123 6.06022C19.0564 6.01151 18.7159 6 16 6Z" fill="black"/>
	<path d="M16 10.8649C13.164 10.8649 10.8649 13.1639 10.8649 16C10.8649 18.8361 13.164 21.1352 16 21.1352C18.8361 21.1352 21.1352 18.8361 21.1352 16C21.1352 13.1639 18.8361 10.8649 16 10.8649ZM16 19.3334C14.1591 19.3334 12.6667 17.841 12.6667 16C12.6667 14.1591 14.159 12.6667 16 12.6667C17.841 12.6667 19.3334 14.1591 19.3334 16C19.3334 17.841 17.841 19.3334 16 19.3334Z" fill="black"/>
	<path d="M21.338 11.862C22.0008 11.862 22.538 11.3247 22.538 10.662C22.538 9.99926 22.0008 9.46201 21.338 9.46201C20.6753 9.46201 20.138 9.99926 20.138 10.662C20.138 11.3247 20.6753 11.862 21.338 11.862Z" fill="black"/>
</svg>
