<svg viewBox="0 0 32 32" fill="none" xmlns="http://www.w3.org/2000/svg">
<path d="M24.5205 6H7.47504C6.66113 6 6 6.64557 6 7.44226V24.5577C6 25.3539 6.66113 26.0006 7.47504 26.0006H24.5205C25.3361 26.0006 26 25.3539 26 24.5572V7.44226C26 6.64557 25.3361 6 24.5205 6ZM11.9329 23.0427H8.96342V13.498H11.9329V23.0427ZM10.449 12.1941C9.49621 12.1941 8.72785 11.4235 8.72785 10.4735C8.72785 9.52399 9.49621 8.75341 10.449 8.75341C11.3979 8.75341 12.1685 9.52399 12.1685 10.4735C12.1679 11.4235 11.3979 12.1941 10.449 12.1941ZM23.0433 23.0427H20.0771V18.4015C20.0771 17.2948 20.0582 15.8708 18.5359 15.8708C16.9925 15.8708 16.757 17.077 16.757 18.3226V23.0433H13.7941V13.4985H16.6375V14.8036H16.6781C17.0736 14.053 18.0414 13.2619 19.4848 13.2619C22.4882 13.2619 23.0433 15.238 23.0433 17.8087V23.0427Z" fill="#121212"/>
</svg>
