<svg viewBox="0 0 32 32" fill="none" xmlns="http://www.w3.org/2000/svg">
<path d="M12.5475 25.5014C21.6042 25.5014 26.5578 17.9981 26.5578 11.4912C26.5578 11.2781 26.5578 11.0659 26.5434 10.8547C27.507 10.1577 28.3389 9.29461 29 8.30591C28.1013 8.70412 27.148 8.96524 26.1718 9.08063C27.1997 8.46527 27.9691 7.4974 28.3366 6.35711C27.3701 6.93071 26.3126 7.33487 25.2099 7.55231C23.3451 5.56943 20.226 5.47372 18.243 7.33852C16.9642 8.5412 16.4216 10.3332 16.8186 12.0432C12.8594 11.8448 9.17072 9.97467 6.6704 6.89855C5.36346 9.1484 6.03104 12.0268 8.19488 13.4717C7.41123 13.4484 6.64477 13.237 5.96 12.8553C5.96 12.8755 5.96 12.8966 5.96 12.9177C5.96067 15.2617 7.61293 17.2805 9.9104 17.7446C9.1855 17.9423 8.4249 17.9712 7.68704 17.8291C8.33206 19.8349 10.1807 21.2091 12.2874 21.2486C10.5437 22.6189 8.38986 23.3628 6.17216 23.3606C5.78038 23.3599 5.38899 23.3361 5 23.2896C7.25178 24.7347 9.8719 25.5011 12.5475 25.4976" fill="#121212"/>
</svg>
