<svg viewBox="0 0 32 32" fill="none" xmlns="http://www.w3.org/2000/svg">
<path d="M27.4985 10.6404C27.2225 9.60105 26.4092 8.78259 25.3766 8.50482C23.505 8 16 8 16 8C16 8 8.49496 8 6.62336 8.50482C5.59082 8.78259 4.77755 9.60118 4.50155 10.6404C4 12.5241 4 16.4545 4 16.4545C4 16.4545 4 20.385 4.50155 22.2687C4.77755 23.308 5.59082 24.1265 6.62336 24.4043C8.49496 24.9091 16 24.9091 16 24.9091C16 24.9091 23.505 24.9091 25.3766 24.4043C26.4092 24.1265 27.2225 23.3079 27.4985 22.2687C28 20.385 28 16.4545 28 16.4545C28 16.4545 28 12.5241 27.4985 10.6404ZM13.5455 20.023V12.886L19.8182 16.4547L13.5455 20.023Z" fill="#121212"/>
</svg>
