<svg width="160" height="160" viewBox="0 0 160 160" fill="none"
	xmlns="http://www.w3.org/2000/svg">
	<path d="M65.9871 75.2643C66.3168 78.0669 63.5142 80.0451 61.0414 78.5614C51.9744 73.2861 47.5233 63.5596 41.5885 55.152C32.0269 70.3186 24.7732 84.9908 24.7732 100.652C24.7732 132.469 47.3584 156.703 79.1755 156.703C110.993 156.703 135.226 132.469 135.226 100.652C135.226 60.757 93.5179 53.8331 94.0125 3.38736C77.1972 15.2569 61.3711 41.7987 65.9871 75.2643Z" fill="#FB923C"/>
	<path d="M79.1755 160C45.7099 160 21.4761 135.107 21.4761 100.652C21.4761 83.3422 29.8838 67.681 38.786 53.3386C39.4454 52.3494 40.4345 51.8549 41.4236 51.8549C42.5776 51.8549 43.5668 52.3494 44.2262 53.1737C45.7099 55.152 47.0287 57.2951 48.3476 59.4382C52.469 65.8676 56.4255 71.9672 62.69 75.594C57.9092 41.469 74.065 13.2787 92.0343 0.584826C93.0234 -0.0745957 94.3422 -0.239451 95.4962 0.419971C96.6502 0.914537 97.3096 2.06852 97.3096 3.38737C96.9799 28.94 108.19 42.9527 118.906 56.306C128.632 68.3404 138.523 80.7045 138.523 100.652C138.523 134.447 112.971 160 79.1755 160ZM41.7533 61.2516C34.3349 73.4509 28.0704 86.6393 28.0704 100.652C28.0704 131.15 49.5016 153.406 79.1755 153.406C109.179 153.406 131.929 130.656 131.929 100.652C131.929 83.0125 123.522 72.6266 113.795 60.4273C103.739 47.8983 92.5288 33.8856 90.8803 10.1464C76.7027 23.0052 65.3277 46.5795 69.2842 74.7698C69.6139 77.4074 68.4599 79.8803 66.3168 81.1991C64.1737 82.518 61.536 82.518 59.3929 81.1991C51.8095 76.748 47.3584 69.6592 42.9073 62.9002C42.4128 62.4056 42.0831 61.911 41.7533 61.2516Z" fill="#C2410C"/>
	<path d="M114.619 125.38C120.389 116.478 123.686 105.763 123.686 94.0578Z" fill="#FB923C"/>
	<path d="M114.619 128.677C113.96 128.677 113.301 128.513 112.806 128.183C111.322 127.194 110.828 125.216 111.817 123.567C117.422 114.994 120.389 104.773 120.389 94.0579C120.389 92.2444 121.873 90.7607 123.686 90.7607C125.5 90.7607 126.984 92.2444 126.984 94.0579C126.984 106.092 123.686 117.467 117.422 127.194C116.763 128.183 115.773 128.677 114.619 128.677Z" fill="#C2410C"/>
	<path d="M104.563 136.92C105.717 135.931 107.036 134.777 108.025 133.623Z" fill="#FB923C"/>
	<path d="M104.563 140.217C103.574 140.217 102.75 139.888 102.09 139.063C100.936 137.745 101.101 135.601 102.42 134.447C103.409 133.458 104.728 132.469 105.552 131.48C106.706 130.161 108.85 129.996 110.168 131.15C111.487 132.304 111.652 134.447 110.498 135.766C109.344 137.085 107.86 138.404 106.706 139.393C106.047 139.888 105.388 140.217 104.563 140.217Z" fill="#C2410C"/>
</svg>
