<svg width="66" height="66" viewBox="0 0 66 66" fill="none" xmlns="http://www.w3.org/2000/svg">
<path fill-rule="evenodd" clip-rule="evenodd" d="M48.4416 25.983C48.4416 28.7956 47.6896 31.4325 46.3758 33.7037H46.3827L46.261 33.8988C46.1617 34.0648 46.0593 34.2289 45.954 34.3908L34.7499 52.3461C33.9423 53.6403 32.0579 53.6403 31.2503 52.3461L20.0478 34.3934C19.9414 34.2297 19.8379 34.064 19.7376 33.8961L19.6175 33.7037H19.6244C18.3105 31.4325 17.5586 28.7956 17.5586 25.983C17.5586 17.4549 24.472 10.5415 33.0001 10.5415C41.5282 10.5415 48.4416 17.4549 48.4416 25.983ZM33.0001 33C36.4174 33 39.1876 30.2298 39.1876 26.8125C39.1876 23.3952 36.4174 20.625 33.0001 20.625C29.5828 20.625 26.8126 23.3952 26.8126 26.8125C26.8126 30.2298 29.5828 33 33.0001 33Z" fill="#3b82f6" stroke="#1e3a8a" stroke-width="2" stroke-linecap="round" stroke-linejoin="round"/>
</svg>
